<?xml version="1.0" encoding="utf-8"?>
<svg id="master-artboard" viewBox="0 0 2137.85546875 1869.549072265625" version="1.1" xmlns="http://www.w3.org/2000/svg" x="0px" y="0px" style="enable-background:new 0 0 1400 980;" width="2137.85546875px" height="1869.549072265625px"><defs><style id="ee-google-fonts">@import url(https://fonts.googleapis.com/css?family=Raleway:100,100italic,200,200italic,300,300italic,400,400italic,500,500italic,600,600italic,700,700italic,800,800italic,900,900italic);</style></defs><rect id="ee-background" x="0" y="0" width="2137.85546875" height="1869.549072265625" style="fill: white; fill-opacity: 0; pointer-events: none;"/>

<path d="M 1075.699951171875 622.5 L 1075.699951171875 809.7999877929688 L 1038.5 809.7999877929688 L 1038.5 641.9000244140625 L 1075.699951171875 622.5 Z" transform="matrix(6.539467811584473, 0, 0, 6.539467811584473, -6487.703493690718, -3466.989294716231)" style="fill: rgb(197, 179, 88); fill-opacity: 1; stroke: rgb(197, 179, 88);"/><path d="M 1121.699951171875 573.2000122070312 L 1121.699951171875 809.7999877929688 L 1084.5999755859375 809.7999877929688 L 1084.5999755859375 592.5999755859375 L 1121.699951171875 573.2000122070312 Z" transform="matrix(6.539467811584473, 0, 0, 6.539467811584473, -6469.5379663469685, -3466.989294716231)" style="fill: rgb(197, 179, 88); fill-opacity: 1; stroke: rgb(197, 179, 88);"/><path d="M 1224.300048828125 656.4000244140625 L 1224.300048828125 809.7999877929688 L 1261.4000244140625 809.7999877929688 L 1261.4000244140625 675.7999877929688 L 1224.300048828125 656.4000244140625 Z" transform="matrix(6.539467811584473, 0, 0, 6.539467811584473, -6451.3729272844685, -3466.989294716231)" style="fill: rgb(197, 179, 88); fill-opacity: 1; stroke: rgb(197, 179, 88);"/><path d="M 1178.199951171875 603.0999755859375 L 1178.199951171875 809.7999877929688 L 1215.4000244140625 809.7999877929688 L 1215.4000244140625 622.5 L 1178.199951171875 603.0999755859375 Z" transform="matrix(6.539467811584473, 0, 0, 6.539467811584473, -6469.5379663469685, -3466.989294716231)" style="fill: rgb(197, 179, 88); fill-opacity: 1; stroke: rgb(197, 179, 88);"/><path d="M 1132.199951171875 535.2999877929688 L 1132.199951171875 809.7999877929688 L 1169.4000244140625 809.7999877929688 L 1169.4000244140625 554.7000122070312 L 1132.199951171875 535.2999877929688 Z" transform="matrix(6.539462089538574, 0, 0, 6.539462089538574, -6480.2093530657185, -3456.3069216693566)" style="fill: rgb(197, 179, 88); fill-opacity: 1; stroke: rgb(197, 179, 88);"/>

<path d="M 471.60888671875 388.4951477050781 L 354.89599609375 399.1054382324219" style="fill: rgb(197, 179, 88); fill-opacity: 1; stroke: rgb(197, 179, 88); stroke-opacity: 1; stroke-width: 0; paint-order: fill;" transform="matrix(1.483545184135437, 0, 0, 1.483545184135437, 283.53793086982887, 21.240006736405462)"/><path d="M 446.8515930175781 1135.4576416015625" style="fill: rgb(255, 255, 255); fill-opacity: 1; stroke: rgb(0, 0, 0); stroke-opacity: 1; stroke-width: 0; paint-order: stroke;" transform="matrix(1, 0, 0, 1, -148.87527465820312, 390.94954681396484)"/></svg>