<?xml version="1.0" encoding="utf-8"?>
<svg id="master-artboard" viewBox="0 0 1016.26220703125 1220.4993896484375" version="1.1" xmlns="http://www.w3.org/2000/svg" x="0px" y="0px" style="enable-background:new 0 0 1400 980;" width="1016.26220703125px" height="1220.4993896484375px"><rect id="ee-background" x="0" y="0" width="1016.26220703125" height="1220.4993896484375" style="fill: white; fill-opacity: 0; pointer-events: none;"/>

<path d="M 1075.699951171875 622.5 L 1075.699951171875 809.7999877929688 L 1038.5 809.7999877929688 L 1038.5 641.9000244140625 Z" transform="matrix(4.4079972894107184, 0, 0, 4.4079972894107184, -4551.9833711358715, -2351.277377383759)" style="fill: rgb(254, 254, 254);"/><path d="M 1121.699951171875 573.2000122070312 L 1121.699951171875 809.7999877929688 L 1084.5999755859375 809.7999877929688 L 1084.5999755859375 592.5999755859375 Z" transform="matrix(4.4079972894107184, 0, 0, 4.4079972894107184, -4551.9833711358715, -2351.277377383759)" style="fill: rgb(252, 252, 252);"/><path d="M 1224.300048828125 656.4000244140625 L 1224.300048828125 809.7999877929688 L 1261.4000244140625 809.7999877929688 L 1261.4000244140625 675.7999877929688 Z" transform="matrix(4.4079972894107184, 0, 0, 4.4079972894107184, -4551.9833711358715, -2351.277377383759)" style="fill: rgb(252, 252, 252);"/><path d="M 1178.199951171875 603.0999755859375 L 1178.199951171875 809.7999877929688 L 1215.4000244140625 809.7999877929688 L 1215.4000244140625 622.5 Z" transform="matrix(4.4079972894107184, 0, 0, 4.4079972894107184, -4551.9833711358715, -2351.277377383759)" style="fill: rgb(252, 252, 252);"/><path d="M 1132.199951171875 535.2999877929688 L 1132.199951171875 809.7999877929688 L 1169.4000244140625 809.7999877929688 L 1169.4000244140625 554.7000122070312 Z" transform="matrix(4.4079972894107184, 0, 0, 4.4079972894107184, -4551.9833711358715, -2351.277377383759)" style="fill: rgb(252, 252, 252);"/>

<path d="M 471.60888671875 388.4951477050781 L 354.89599609375 399.1054382324219" style="fill: rgb(252, 252, 252); fill-opacity: 1; stroke: rgb(0, 0, 0); stroke-opacity: 1; stroke-width: 0; paint-order: fill;"/></svg>