<?xml version="1.0" encoding="utf-8"?>
<svg id="master-artboard" viewBox="0 0 1400 980" version="1.1" xmlns="http://www.w3.org/2000/svg" x="0px" y="0px" style="enable-background:new 0 0 1400 980;" width="1400px" height="980px"><rect id="ee-background" x="0" y="0" width="1400" height="980" style="fill: white; fill-opacity: 0; pointer-events: none;"/><defs><style id="ee-google-fonts">@import url(https://fonts.googleapis.com/css?family=Abril+Fatface:400);</style></defs>

<path d="M 1075.699951171875 622.5 L 1075.699951171875 809.7999877929688 L 1038.5 809.7999877929688 L 1038.5 641.9000244140625 Z" transform="matrix(2.847449064254761, 0, 0, 2.847449064254761, -2574.5774593159103, -1511.0342122095105)" style="fill: rgb(253, 255, 245);"/><path d="M 1121.699951171875 573.2000122070312 L 1121.699951171875 809.7999877929688 L 1084.5999755859375 809.7999877929688 L 1084.5999755859375 592.5999755859375 Z" transform="matrix(2.847449064254761, 0, 0, 2.847449064254761, -2574.5774593159103, -1511.0342122095105)" style="fill: rgb(253, 255, 245);"/><path d="M 1224.300048828125 656.4000244140625 L 1224.300048828125 809.7999877929688 L 1261.4000244140625 809.7999877929688 L 1261.4000244140625 675.7999877929688 Z" transform="matrix(2.847449064254761, 0, 0, 2.847449064254761, -2574.5774593159103, -1511.0342122095105)" style="fill: rgb(253, 255, 245);"/><path d="M 1178.199951171875 603.0999755859375 L 1178.199951171875 809.7999877929688 L 1215.4000244140625 809.7999877929688 L 1215.4000244140625 622.5 Z" transform="matrix(2.847449064254761, 0, 0, 2.847449064254761, -2574.5774593159103, -1511.0342122095105)" style="fill: rgb(253, 255, 245);"/><path d="M 1132.199951171875 535.2999877929688 L 1132.199951171875 809.7999877929688 L 1169.4000244140625 809.7999877929688 L 1169.4000244140625 554.7000122070312 Z" transform="matrix(2.847449064254761, 0, 0, 2.847449064254761, -2574.5774593159103, -1511.0342122095105)" style="fill: rgb(253, 255, 245);"/>

</svg>