<?xml version="1.0" encoding="utf-8"?>
<svg id="master-artboard" viewBox="0 0 1400 980" version="1.1" xmlns="http://www.w3.org/2000/svg" x="0px" y="0px" style="enable-background:new 0 0 1400 980;" width="1400px" height="980px"><rect id="ee-background" x="0" y="0" width="1400" height="980" style="fill: white; fill-opacity: 0; pointer-events: none;"/><defs><style id="ee-google-fonts">@import url(https://fonts.googleapis.com/css?family=Abril+Fatface:400);</style></defs>

<path d="M 1075.699951171875 622.5 L 1075.699951171875 809.7999877929688 L 1038.5 809.7999877929688 L 1038.5 641.9000244140625 Z" transform="matrix(2.847449064254761, 0, 0, 2.847449064254761, -2574.5774593159103, -1511.0342122095105)" style="fill: rgb(253, 255, 245);"/><path d="M 1121.699951171875 573.2000122070312 L 1121.699951171875 809.7999877929688 L 1084.5999755859375 809.7999877929688 L 1084.5999755859375 592.5999755859375 Z" transform="matrix(2.847449064254761, 0, 0, 2.847449064254761, -2574.5774593159103, -1511.0342122095105)" style="fill: rgb(253, 255, 245);"/><path d="M 1224.300048828125 656.4000244140625 L 1224.300048828125 809.7999877929688 L 1261.4000244140625 809.7999877929688 L 1261.4000244140625 675.7999877929688 Z" transform="matrix(2.847449064254761, 0, 0, 2.847449064254761, -2574.5774593159103, -1511.0342122095105)" style="fill: rgb(253, 255, 245);"/><path d="M 1178.199951171875 603.0999755859375 L 1178.199951171875 809.7999877929688 L 1215.4000244140625 809.7999877929688 L 1215.4000244140625 622.5 Z" transform="matrix(2.847449064254761, 0, 0, 2.847449064254761, -2574.5774593159103, -1511.0342122095105)" style="fill: rgb(253, 255, 245);"/><path d="M 1132.199951171875 535.2999877929688 L 1132.199951171875 809.7999877929688 L 1169.4000244140625 809.7999877929688 L 1169.4000244140625 554.7000122070312 Z" transform="matrix(2.847449064254761, 0, 0, 2.847449064254761, -2574.5774593159103, -1511.0342122095105)" style="fill: rgb(253, 255, 245);"/>

<path d="M 5.090000152587891 6.980000019073486 L 8.239999771118164 0.9099998474121094 L 10.050000190734863 0.9099998474121094 L 5.889999866485596 8.489999771118164 L 5.889999866485596 13 L 4.289999961853027 13 L 4.289999961853027 8.489999771118164 L 0.11999999731779099 0.9099998474121094 L 1.9500000476837158 0.9099998474121094 L 5.090000152587891 6.980000019073486 ZM 10.430407524108887 8.430000305175781 C 10.430407524108887 7.550000190734863 10.600407600402832 6.756666660308838 10.940406799316406 6.050000190734863 C 11.287074089050293 5.349999904632568 11.770406723022461 4.810000419616699 12.39040756225586 4.430000305175781 C 13.003740310668945 4.043333053588867 13.707074165344238 3.8500003814697266 14.500407218933105 3.8500003814697266 C 15.727073669433594 3.8500003814697266 16.717073440551758 4.273333549499512 17.470407485961914 5.119999885559082 C 18.223739624023438 5.9666666984558105 18.600406646728516 7.0933332443237305 18.600406646728516 8.5 L 18.600406646728516 8.610000610351562 C 18.600406646728516 9.483333587646484 18.433740615844727 10.266666412353516 18.100406646728516 10.960000038146973 C 17.767074584960938 11.65333366394043 17.28707504272461 12.193333625793457 16.66040802001953 12.579999923706055 C 16.040407180786133 12.973333358764648 15.32707405090332 13.170000076293945 14.520406723022461 13.170000076293945 C 13.300407409667969 13.170000076293945 12.313740730285645 12.74666690826416 11.560407638549805 11.899999618530273 C 10.807073593139648 11.053333282470703 10.430407524108887 9.930000305175781 10.430407524108887 8.530000686645508 L 10.430407524108887 8.430000305175781 M 11.970407485961914 8.610000610351562 C 11.970407485961914 9.603333473205566 12.200407028198242 10.40333366394043 12.660407066345215 11.010000228881836 C 13.127074241638184 11.609999656677246 13.747074127197266 11.90999984741211 14.520406723022461 11.90999984741211 C 15.300407409667969 11.90999984741211 15.92040729522705 11.606666564941406 16.380407333374023 11 C 16.840408325195312 10.386667251586914 17.07040786743164 9.529999732971191 17.07040786743164 8.430000305175781 C 17.07040786743164 7.443333148956299 16.833740234375 6.643333435058594 16.36040687561035 6.03000020980835 C 15.8937406539917 5.416666507720947 15.273740768432617 5.110000133514404 14.500407218933105 5.110000133514404 C 13.740407943725586 5.110000133514404 13.130407333374023 5.413333415985107 12.67040729522705 6.019999980926514 C 12.203741073608398 6.619999885559082 11.970407485961914 7.483333110809326 11.970407485961914 8.610000610351562 ZM 26.07571792602539 12.109999656677246 C 25.475717544555664 12.816666603088379 24.599050521850586 13.170000076293945 23.445716857910156 13.170000076293945 C 22.4857177734375 13.170000076293945 21.75571632385254 12.890000343322754 21.25571632385254 12.329999923706055 C 20.75571632385254 11.776666641235352 20.502384185791016 10.953332901000977 20.495716094970703 9.859999656677246 L 20.495716094970703 4.020000457763672 L 22.02571678161621 4.020000457763672 L 22.02571678161621 9.819999694824219 C 22.02571678161621 11.180000305175781 22.579050064086914 11.859999656677246 23.68571662902832 11.859999656677246 C 24.859050750732422 11.859999656677246 25.642383575439453 11.423333168029785 26.035717010498047 10.550000190734863 L 26.035717010498047 4.020000457763672 L 27.565715789794922 4.020000457763672 L 27.565715789794922 13 L 26.105716705322266 13 L 26.07571792602539 12.109999656677246 ZM 34.23729705810547 5.400000095367432 C 34.003963470458984 5.360000133514404 33.753963470458984 5.340000152587891 33.48729705810547 5.340000152587891 C 32.480628967285156 5.340000152587891 31.79729652404785 5.766666889190674 31.437297821044922 6.619999885559082 L 31.437297821044922 13 L 29.897296905517578 13 L 29.897296905517578 4.020000457763672 L 31.397296905517578 4.020000457763672 L 31.41729736328125 5.059999942779541 C 31.92396354675293 4.25333309173584 32.637298583984375 3.8500003814697266 33.55729675292969 3.8500003814697266 C 33.857295989990234 3.8500003814697266 34.08396530151367 3.890000343322754 34.23729705810547 3.9700002670288086 L 34.23729705810547 5.400000095367432 ZM 41.528236389160156 13 L 39.98823547363281 13 L 39.98823547363281 0.25 L 41.528236389160156 0.25 L 41.528236389160156 13 ZM 49.533721923828125 12.109999656677246 C 48.93372344970703 12.816666603088379 48.05705642700195 13.170000076293945 46.903724670410156 13.170000076293945 C 45.943721771240234 13.170000076293945 45.213722229003906 12.890000343322754 44.713722229003906 12.329999923706055 C 44.213722229003906 11.776666641235352 43.96038818359375 10.953332901000977 43.9537239074707 9.859999656677246 L 43.9537239074707 4.020000457763672 L 45.48372268676758 4.020000457763672 L 45.48372268676758 9.819999694824219 C 45.48372268676758 11.180000305175781 46.03705596923828 11.859999656677246 47.14372253417969 11.859999656677246 C 48.317054748535156 11.859999656677246 49.10038757324219 11.423333168029785 49.49372100830078 10.550000190734863 L 49.49372100830078 4.020000457763672 L 51.02372360229492 4.020000457763672 L 51.02372360229492 13 L 49.563720703125 13 L 49.533721923828125 12.109999656677246 ZM 56.375301361083984 7.300000190734863 L 58.36530303955078 4.020000457763672 L 60.15530014038086 4.020000457763672 L 57.215301513671875 8.460000038146973 L 60.24530029296875 13 L 58.47529983520508 13 L 56.395301818847656 9.640000343322754 L 54.32530212402344 13 L 52.535301208496094 13 L 55.56529998779297 8.460000038146973 L 52.625301361083984 4.020000457763672 L 54.40530014038086 4.020000457763672 L 56.375301361083984 7.300000190734863 ZM 67.3305892944336 12.109999656677246 C 66.7305908203125 12.816666603088379 65.85391998291016 13.170000076293945 64.70059204101562 13.170000076293945 C 63.7405891418457 13.170000076293945 63.010589599609375 12.890000343322754 62.510589599609375 12.329999923706055 C 62.010589599609375 11.776666641235352 61.75725555419922 10.953332901000977 61.75059127807617 9.859999656677246 L 61.75059127807617 4.020000457763672 L 63.28059005737305 4.020000457763672 L 63.28059005737305 9.819999694824219 C 63.28059005737305 11.180000305175781 63.83392333984375 11.859999656677246 64.94058990478516 11.859999656677246 C 66.11392211914062 11.859999656677246 66.89725494384766 11.423333168029785 67.29058837890625 10.550000190734863 L 67.29058837890625 4.020000457763672 L 68.82058715820312 4.020000457763672 L 68.82058715820312 13 L 67.36058807373047 13 L 67.3305892944336 12.109999656677246 ZM 75.49217224121094 5.400000095367432 C 75.25884246826172 5.360000133514404 75.00884246826172 5.340000152587891 74.74217224121094 5.340000152587891 C 73.73550415039062 5.340000152587891 73.05216979980469 5.766666889190674 72.69216918945312 6.619999885559082 L 72.69216918945312 13 L 71.15217590332031 13 L 71.15217590332031 4.020000457763672 L 72.65217590332031 4.020000457763672 L 72.67217254638672 5.059999942779541 C 73.17884063720703 4.25333309173584 73.89217376708984 3.8500003814697266 74.81217193603516 3.8500003814697266 C 75.11217498779297 3.8500003814697266 75.33883666992188 3.890000343322754 75.49217224121094 3.9700002670288086 L 75.49217224121094 5.400000095367432 ZM 79.99402618408203 10.75 L 82.08403015136719 4.020000457763672 L 83.73402404785156 4.020000457763672 L 80.12403106689453 14.390000343322754 C 79.56402587890625 15.883333206176758 78.67402648925781 16.630001068115234 77.45402526855469 16.630001068115234 L 77.16402435302734 16.600000381469727 L 76.59402465820312 16.489999771118164 L 76.59402465820312 15.25 L 77.0040283203125 15.279999732971191 C 77.5240249633789 15.279999732971191 77.93069458007812 15.176666259765625 78.22402954101562 14.970000267028809 C 78.51069641113281 14.75666618347168 78.75069427490234 14.369999885559082 78.94403076171875 13.8100004196167 L 79.28402709960938 12.899999618530273 L 76.07402801513672 4.020000457763672 L 77.7540283203125 4.020000457763672 L 79.99402618408203 10.75 ZM 90.97598266601562 13 L 89.43598175048828 13 L 89.43598175048828 4.020000457763672 L 90.97598266601562 4.020000457763672 L 90.97598266601562 13 M 89.31597900390625 1.640000343322754 C 89.31597900390625 1.3866662979125977 89.39264678955078 1.176666259765625 89.54598236083984 1.010000228881836 C 89.69931030273438 0.8366670608520508 89.92597961425781 0.75 90.22598266601562 0.75 C 90.51931762695312 0.75 90.74597930908203 0.8366670608520508 90.9059829711914 1.010000228881836 C 91.05931091308594 1.176666259765625 91.13597869873047 1.3866662979125977 91.13597869873047 1.640000343322754 C 91.13597869873047 1.8866662979125977 91.05931091308594 2.0933332443237305 90.9059829711914 2.260000228881836 C 90.74597930908203 2.426666259765625 90.51931762695312 2.510000228881836 90.22598266601562 2.510000228881836 C 89.92597961425781 2.510000228881836 89.69931030273438 2.426666259765625 89.54598236083984 2.260000228881836 C 89.39264678955078 2.0933332443237305 89.31597900390625 1.8866662979125977 89.31597900390625 1.640000343322754 ZM 98.66146850585938 10.619999885559082 C 98.66146850585938 10.206666946411133 98.50479888916016 9.883333206176758 98.19146728515625 9.649999618530273 C 97.87813568115234 9.423333168029785 97.33480072021484 9.226666450500488 96.56147003173828 9.059999465942383 C 95.7814712524414 8.893333435058594 95.16480255126953 8.69333267211914 94.71147155761719 8.460000038146973 C 94.25147247314453 8.226666450500488 93.91146850585938 7.949999809265137 93.69146728515625 7.630000114440918 C 93.47813415527344 7.309999942779541 93.37146759033203 6.926666736602783 93.37146759033203 6.480000019073486 C 93.37146759033203 5.746666431427002 93.68147277832031 5.12666654586792 94.30146789550781 4.619999885559082 C 94.92147064208984 4.106666564941406 95.7181396484375 3.8500003814697266 96.69146728515625 3.8500003814697266 C 97.70480346679688 3.8500003814697266 98.52813720703125 4.113333702087402 99.16146850585938 4.640000343322754 C 99.7947998046875 5.166666507720947 100.11146545410156 5.840000152587891 100.11146545410156 6.659999847412109 L 98.57147216796875 6.659999847412109 C 98.57147216796875 6.239999771118164 98.39147186279297 5.87666654586792 98.0314712524414 5.570000171661377 C 97.67813873291016 5.263333320617676 97.2314682006836 5.110000133514404 96.69146728515625 5.110000133514404 C 96.1314697265625 5.110000133514404 95.69146728515625 5.233333110809326 95.37146759033203 5.480000019073486 C 95.05813598632812 5.71999979019165 94.9014663696289 6.0366668701171875 94.9014663696289 6.429999828338623 C 94.9014663696289 6.803333282470703 95.04813385009766 7.083333492279053 95.34146881103516 7.269999980926514 C 95.63480377197266 7.456666469573975 96.16480255126953 7.636666774749756 96.93147277832031 7.809999942779541 C 97.69813537597656 7.983333110809326 98.3181381225586 8.190000534057617 98.79146575927734 8.430000305175781 C 99.27146911621094 8.663333892822266 99.62480163574219 8.949999809265137 99.85147094726562 9.289999961853027 C 100.08480072021484 9.623332977294922 100.20146942138672 10.029999732971191 100.20146942138672 10.510000228881836 C 100.20146942138672 11.309999465942383 99.87813568115234 11.953332901000977 99.2314682006836 12.4399995803833 C 98.59146881103516 12.926666259765625 97.76146697998047 13.170000076293945 96.74147033691406 13.170000076293945 C 96.02146911621094 13.170000076293945 95.38480377197266 13.039999961853027 94.83146667480469 12.779999732971191 C 94.27813720703125 12.526666641235352 93.84480285644531 12.173333168029785 93.5314712524414 11.720000267028809 C 93.21813201904297 11.260000228881836 93.06147003173828 10.766666412353516 93.06147003173828 10.239999771118164 L 94.59146881103516 10.239999771118164 C 94.62480163574219 10.75333309173584 94.83146667480469 11.15999984741211 95.21147155761719 11.460000038146973 C 95.59813690185547 11.760000228881836 96.10813903808594 11.90999984741211 96.74147033691406 11.90999984741211 C 97.32147216796875 11.90999984741211 97.78480529785156 11.793333053588867 98.1314697265625 11.559999465942383 C 98.48480224609375 11.326666831970215 98.66146850585938 11.013333320617676 98.66146850585938 10.619999885559082 ZM 106.0055923461914 8.430000305175781 C 106.0055923461914 7.550000190734863 106.17559051513672 6.756666660308838 106.51558685302734 6.050000190734863 C 106.86225891113281 5.349999904632568 107.34558868408203 4.810000419616699 107.96559143066406 4.430000305175781 C 108.57892608642578 4.043333053588867 109.28225708007812 3.8500003814697266 110.07559204101562 3.8500003814697266 C 111.30225372314453 3.8500003814697266 112.2922592163086 4.273333549499512 113.04559326171875 5.119999885559082 C 113.79891967773438 5.9666666984558105 114.17559051513672 7.0933332443237305 114.17559051513672 8.5 L 114.17559051513672 8.610000610351562 C 114.17559051513672 9.483333587646484 114.00892639160156 10.266666412353516 113.67559051513672 10.960000038146973 C 113.34225463867188 11.65333366394043 112.86225891113281 12.193333625793457 112.23558807373047 12.579999923706055 C 111.61559295654297 12.973333358764648 110.90225982666016 13.170000076293945 110.09558868408203 13.170000076293945 C 108.8755874633789 13.170000076293945 107.88892364501953 12.74666690826416 107.13558959960938 11.899999618530273 C 106.38225555419922 11.053333282470703 106.0055923461914 9.930000305175781 106.0055923461914 8.530000686645508 L 106.0055923461914 8.430000305175781 M 107.54559326171875 8.610000610351562 C 107.54559326171875 9.603333473205566 107.77558898925781 10.40333366394043 108.23558807373047 11.010000228881836 C 108.70225524902344 11.609999656677246 109.32225799560547 11.90999984741211 110.09558868408203 11.90999984741211 C 110.8755874633789 11.90999984741211 111.49559020996094 11.606666564941406 111.9555892944336 11 C 112.41558837890625 10.386667251586914 112.64559173583984 9.529999732971191 112.64559173583984 8.430000305175781 C 112.64559173583984 7.443333148956299 112.40892028808594 6.643333435058594 111.93559265136719 6.03000020980835 C 111.46892547607422 5.416666507720947 110.84892272949219 5.110000133514404 110.07559204101562 5.110000133514404 C 109.31558990478516 5.110000133514404 108.7055892944336 5.413333415985107 108.24559020996094 6.019999980926514 C 107.77892303466797 6.619999885559082 107.54559326171875 7.483333110809326 107.54559326171875 8.610000610351562 ZM 121.6509017944336 12.109999656677246 C 121.0509033203125 12.816666603088379 120.17423248291016 13.170000076293945 119.02090454101562 13.170000076293945 C 118.06090545654297 13.170000076293945 117.33090209960938 12.890000343322754 116.83090209960938 12.329999923706055 C 116.33090209960938 11.776666641235352 116.07756805419922 10.953332901000977 116.0708999633789 9.859999656677246 L 116.0708999633789 4.020000457763672 L 117.60090637207031 4.020000457763672 L 117.60090637207031 9.819999694824219 C 117.60090637207031 11.180000305175781 118.15423583984375 11.859999656677246 119.26090240478516 11.859999656677246 C 120.43423461914062 11.859999656677246 121.21756744384766 11.423333168029785 121.61090087890625 10.550000190734863 L 121.61090087890625 4.020000457763672 L 123.14089965820312 4.020000457763672 L 123.14089965820312 13 L 121.68090057373047 13 L 121.6509017944336 12.109999656677246 ZM 129.81248474121094 5.400000095367432 C 129.5791473388672 5.360000133514404 129.3291473388672 5.340000152587891 129.06248474121094 5.340000152587891 C 128.05581665039062 5.340000152587891 127.37248229980469 5.766666889190674 127.01248168945312 6.619999885559082 L 127.01248168945312 13 L 125.47248840332031 13 L 125.47248840332031 4.020000457763672 L 126.97248840332031 4.020000457763672 L 126.99248504638672 5.059999942779541 C 127.49915313720703 4.25333309173584 128.2124786376953 3.8500003814697266 129.1324920654297 3.8500003814697266 C 129.43247985839844 3.8500003814697266 129.65914916992188 3.890000343322754 129.81248474121094 3.9700002670288086 L 129.81248474121094 5.400000095367432 ZM 143.04342651367188 8.610000610351562 C 143.04342651367188 9.983333587646484 142.7267608642578 11.08666706085205 142.0934295654297 11.920000076293945 C 141.4600830078125 12.75333309173584 140.61341857910156 13.170000076293945 139.5534210205078 13.170000076293945 C 138.4200897216797 13.170000076293945 137.54342651367188 12.766666412353516 136.9234161376953 11.960000038146973 L 136.8434295654297 13 L 135.4334259033203 13 L 135.4334259033203 0.25 L 136.97341918945312 0.25 L 136.97341918945312 5.010000228881836 C 137.5934295654297 4.236666679382324 138.44676208496094 3.8500003814697266 139.53341674804688 3.8500003814697266 C 140.6267547607422 3.8500003814697266 141.48342895507812 4.263333320617676 142.10342407226562 5.090000152587891 C 142.73008728027344 5.916666507720947 143.04342651367188 7.046666622161865 143.04342651367188 8.479999542236328 L 143.04342651367188 8.610000610351562 M 141.50341796875 8.430000305175781 C 141.50341796875 7.389999866485596 141.3000946044922 6.583333492279053 140.89341735839844 6.010000228881836 C 140.49342346191406 5.443333148956299 139.91342163085938 5.159999847412109 139.15342712402344 5.159999847412109 C 138.1400909423828 5.159999847412109 137.41342163085938 5.630000114440918 136.97341918945312 6.570000171661377 L 136.97341918945312 10.449999809265137 C 137.44009399414062 11.390000343322754 138.1734161376953 11.859999656677246 139.1734161376953 11.859999656677246 C 139.90675354003906 11.859999656677246 140.48008728027344 11.576666831970215 140.89341735839844 11.010000228881836 C 141.3000946044922 10.436666488647461 141.50341796875 9.576666831970215 141.50341796875 8.430000305175781 ZM 150.52102661132812 12.109999656677246 C 149.9210205078125 12.816666603088379 149.0443572998047 13.170000076293945 147.89102172851562 13.170000076293945 C 146.93101501464844 13.170000076293945 146.20101928710938 12.890000343322754 145.70101928710938 12.329999923706055 C 145.20101928710938 11.776666641235352 144.94769287109375 10.953332901000977 144.94102478027344 9.859999656677246 L 144.94102478027344 4.020000457763672 L 146.4710235595703 4.020000457763672 L 146.4710235595703 9.819999694824219 C 146.4710235595703 11.180000305175781 147.02435302734375 11.859999656677246 148.1310272216797 11.859999656677246 C 149.30435180664062 11.859999656677246 150.0876922607422 11.423333168029785 150.48101806640625 10.550000190734863 L 150.48101806640625 4.020000457763672 L 152.01101684570312 4.020000457763672 L 152.01101684570312 13 L 150.551025390625 13 L 150.52102661132812 12.109999656677246 ZM 159.57260131835938 10.619999885559082 C 159.57260131835938 10.206666946411133 159.4159393310547 9.883333206176758 159.10260009765625 9.649999618530273 C 158.78927612304688 9.423333168029785 158.24594116210938 9.226666450500488 157.47259521484375 9.059999465942383 C 156.69259643554688 8.893333435058594 156.075927734375 8.69333267211914 155.6226043701172 8.460000038146973 C 155.16259765625 8.226666450500488 154.82260131835938 7.949999809265137 154.60260009765625 7.630000114440918 C 154.38926696777344 7.309999942779541 154.28260803222656 6.926666736602783 154.28260803222656 6.480000019073486 C 154.28260803222656 5.746666431427002 154.5926055908203 5.12666654586792 155.2126007080078 4.619999885559082 C 155.8325958251953 4.106666564941406 156.6292724609375 3.8500003814697266 157.60260009765625 3.8500003814697266 C 158.61593627929688 3.8500003814697266 159.43927001953125 4.113333702087402 160.07260131835938 4.640000343322754 C 160.7059326171875 5.166666507720947 161.02259826660156 5.840000152587891 161.02259826660156 6.659999847412109 L 159.48260498046875 6.659999847412109 C 159.48260498046875 6.239999771118164 159.30259704589844 5.87666654586792 158.94259643554688 5.570000171661377 C 158.58926391601562 5.263333320617676 158.14260864257812 5.110000133514404 157.60260009765625 5.110000133514404 C 157.0426025390625 5.110000133514404 156.60260009765625 5.233333110809326 156.28260803222656 5.480000019073486 C 155.96926879882812 5.71999979019165 155.81260681152344 6.0366668701171875 155.81260681152344 6.429999828338623 C 155.81260681152344 6.803333282470703 155.9592742919922 7.083333492279053 156.2526092529297 7.269999980926514 C 156.54592895507812 7.456666469573975 157.075927734375 7.636666774749756 157.8426055908203 7.809999942779541 C 158.60926818847656 7.983333110809326 159.22926330566406 8.190000534057617 159.70260620117188 8.430000305175781 C 160.18260192871094 8.663333892822266 160.5359344482422 8.949999809265137 160.76260375976562 9.289999961853027 C 160.99594116210938 9.623332977294922 161.1125946044922 10.029999732971191 161.1125946044922 10.510000228881836 C 161.1125946044922 11.309999465942383 160.78927612304688 11.953332901000977 160.14260864257812 12.4399995803833 C 159.5026092529297 12.926666259765625 158.672607421875 13.170000076293945 157.65260314941406 13.170000076293945 C 156.93260192871094 13.170000076293945 156.29592895507812 13.039999961853027 155.7425994873047 12.779999732971191 C 155.18927001953125 12.526666641235352 154.7559356689453 12.173333168029785 154.44259643554688 11.720000267028809 C 154.1292724609375 11.260000228881836 153.97259521484375 10.766666412353516 153.97259521484375 10.239999771118164 L 155.5026092529297 10.239999771118164 C 155.5359344482422 10.75333309173584 155.7425994873047 11.15999984741211 156.1226043701172 11.460000038146973 C 156.50926208496094 11.760000228881836 157.01927185058594 11.90999984741211 157.65260314941406 11.90999984741211 C 158.23260498046875 11.90999984741211 158.69593811035156 11.793333053588867 159.0426025390625 11.559999465942383 C 159.39593505859375 11.326666831970215 159.57260131835938 11.013333320617676 159.57260131835938 10.619999885559082 ZM 164.77822875976562 13 L 163.23822021484375 13 L 163.23822021484375 4.020000457763672 L 164.77822875976562 4.020000457763672 L 164.77822875976562 13 M 163.11822509765625 1.640000343322754 C 163.11822509765625 1.3866662979125977 163.1949005126953 1.176666259765625 163.3482208251953 1.010000228881836 C 163.50155639648438 0.8366670608520508 163.7282257080078 0.75 164.02822875976562 0.75 C 164.32156372070312 0.75 164.54823303222656 0.8366670608520508 164.70822143554688 1.010000228881836 C 164.86155700683594 1.176666259765625 164.938232421875 1.3866662979125977 164.938232421875 1.640000343322754 C 164.938232421875 1.8866662979125977 164.86155700683594 2.0933332443237305 164.70822143554688 2.260000228881836 C 164.54823303222656 2.426666259765625 164.32156372070312 2.510000228881836 164.02822875976562 2.510000228881836 C 163.7282257080078 2.510000228881836 163.50155639648438 2.426666259765625 163.3482208251953 2.260000228881836 C 163.1949005126953 2.0933332443237305 163.11822509765625 1.8866662979125977 163.11822509765625 1.640000343322754 ZM 168.6837158203125 4.020000457763672 L 168.7337188720703 5.150000095367432 C 169.42037963867188 4.283333778381348 170.31704711914062 3.8500003814697266 171.42372131347656 3.8500003814697266 C 173.32371520996094 3.8500003814697266 174.28372192382812 4.920000076293945 174.3037109375 7.059999942779541 L 174.3037109375 13 L 172.7637176513672 13 L 172.7637176513672 7.059999942779541 C 172.75704956054688 6.413333415985107 172.61038208007812 5.933333396911621 172.32371520996094 5.619999885559082 C 172.03038024902344 5.313333511352539 171.57704162597656 5.159999847412109 170.96371459960938 5.159999847412109 C 170.46371459960938 5.159999847412109 170.0270538330078 5.289999961853027 169.65371704101562 5.550000190734863 C 169.27371215820312 5.816666603088379 168.98037719726562 6.166666507720947 168.77371215820312 6.599999904632568 L 168.77371215820312 13 L 167.2337188720703 13 L 167.2337188720703 4.020000457763672 L 168.6837158203125 4.020000457763672 ZM 180.34359741210938 13.170000076293945 C 179.12359619140625 13.170000076293945 178.1335906982422 12.770000457763672 177.37359619140625 11.970000267028809 C 176.60693359375 11.170000076293945 176.22360229492188 10.100000381469727 176.22360229492188 8.760000228881836 L 176.22360229492188 8.479999542236328 C 176.22360229492188 7.586666584014893 176.3936004638672 6.789999961853027 176.7335968017578 6.090000152587891 C 177.07359313964844 5.389999866485596 177.55026245117188 4.8433332443237305 178.16360473632812 4.449999809265137 C 178.7769317626953 4.050000190734863 179.4402618408203 3.8500003814697266 180.15359497070312 3.8500003814697266 C 181.3202667236328 3.8500003814697266 182.2269287109375 4.236666679382324 182.87359619140625 5.010000228881836 C 183.520263671875 5.776666641235352 183.84359741210938 6.87666654586792 183.84359741210938 8.309999465942383 L 183.84359741210938 8.949999809265137 L 177.7635955810547 8.949999809265137 C 177.78359985351562 9.836666107177734 178.04026794433594 10.550000190734863 178.53359985351562 11.09000015258789 C 179.03359985351562 11.636666297912598 179.66360473632812 11.90999984741211 180.42359924316406 11.90999984741211 C 180.9702606201172 11.90999984741211 181.43026733398438 11.800000190734863 181.80360412597656 11.579999923706055 C 182.1769256591797 11.359999656677246 182.50692749023438 11.066666603088379 182.79359436035156 10.699999809265137 L 183.7335968017578 11.430000305175781 C 182.9802703857422 12.59000015258789 181.8502655029297 13.170000076293945 180.34359741210938 13.170000076293945 M 180.15359497070312 5.110000133514404 C 179.53359985351562 5.110000133514404 179.0135955810547 5.336666584014893 178.59359741210938 5.789999961853027 C 178.17359924316406 6.243333339691162 177.91360473632812 6.87666654586792 177.8135986328125 7.690000057220459 L 182.3135986328125 7.690000057220459 L 182.3135986328125 7.570000171661377 C 182.26693725585938 6.789999961853027 182.0569305419922 6.186666488647461 181.68359375 5.760000228881836 C 181.30360412597656 5.326666831970215 180.79359436035156 5.110000133514404 180.15359497070312 5.110000133514404 ZM 190.84994506835938 10.619999885559082 C 190.84994506835938 10.206666946411133 190.6932830810547 9.883333206176758 190.37994384765625 9.649999618530273 C 190.06661987304688 9.423333168029785 189.52328491210938 9.226666450500488 188.74993896484375 9.059999465942383 C 187.96994018554688 8.893333435058594 187.353271484375 8.69333267211914 186.8999481201172 8.460000038146973 C 186.43994140625 8.226666450500488 186.09994506835938 7.949999809265137 185.87994384765625 7.630000114440918 C 185.66661071777344 7.309999942779541 185.55995178222656 6.926666736602783 185.55995178222656 6.480000019073486 C 185.55995178222656 5.746666431427002 185.8699493408203 5.12666654586792 186.4899444580078 4.619999885559082 C 187.1099395751953 4.106666564941406 187.9066162109375 3.8500003814697266 188.87994384765625 3.8500003814697266 C 189.89328002929688 3.8500003814697266 190.71661376953125 4.113333702087402 191.34994506835938 4.640000343322754 C 191.9832763671875 5.166666507720947 192.29994201660156 5.840000152587891 192.29994201660156 6.659999847412109 L 190.75994873046875 6.659999847412109 C 190.75994873046875 6.239999771118164 190.57994079589844 5.87666654586792 190.21994018554688 5.570000171661377 C 189.86660766601562 5.263333320617676 189.41995239257812 5.110000133514404 188.87994384765625 5.110000133514404 C 188.3199462890625 5.110000133514404 187.87994384765625 5.233333110809326 187.55995178222656 5.480000019073486 C 187.24661254882812 5.71999979019165 187.08995056152344 6.0366668701171875 187.08995056152344 6.429999828338623 C 187.08995056152344 6.803333282470703 187.2366180419922 7.083333492279053 187.5299530029297 7.269999980926514 C 187.82327270507812 7.456666469573975 188.353271484375 7.636666774749756 189.1199493408203 7.809999942779541 C 189.88661193847656 7.983333110809326 190.50660705566406 8.190000534057617 190.97994995117188 8.430000305175781 C 191.45994567871094 8.663333892822266 191.8132781982422 8.949999809265137 192.03994750976562 9.289999961853027 C 192.27328491210938 9.623332977294922 192.3899383544922 10.029999732971191 192.3899383544922 10.510000228881836 C 192.3899383544922 11.309999465942383 192.06661987304688 11.953332901000977 191.41995239257812 12.4399995803833 C 190.7799530029297 12.926666259765625 189.949951171875 13.170000076293945 188.92994689941406 13.170000076293945 C 188.20994567871094 13.170000076293945 187.57327270507812 13.039999961853027 187.0199432373047 12.779999732971191 C 186.46661376953125 12.526666641235352 186.0332794189453 12.173333168029785 185.71994018554688 11.720000267028809 C 185.4066162109375 11.260000228881836 185.24993896484375 10.766666412353516 185.24993896484375 10.239999771118164 L 186.7799530029297 10.239999771118164 C 186.8132781982422 10.75333309173584 187.0199432373047 11.15999984741211 187.3999481201172 11.460000038146973 C 187.78660583496094 11.760000228881836 188.29661560058594 11.90999984741211 188.92994689941406 11.90999984741211 C 189.50994873046875 11.90999984741211 189.97328186035156 11.793333053588867 190.3199462890625 11.559999465942383 C 190.67327880859375 11.326666831970215 190.84994506835938 11.013333320617676 190.84994506835938 10.619999885559082 ZM 199.61557006835938 10.619999885559082 C 199.61557006835938 10.206666946411133 199.4589080810547 9.883333206176758 199.14556884765625 9.649999618530273 C 198.83224487304688 9.423333168029785 198.28890991210938 9.226666450500488 197.51556396484375 9.059999465942383 C 196.73556518554688 8.893333435058594 196.118896484375 8.69333267211914 195.6655731201172 8.460000038146973 C 195.20556640625 8.226666450500488 194.86557006835938 7.949999809265137 194.64556884765625 7.630000114440918 C 194.43223571777344 7.309999942779541 194.32557678222656 6.926666736602783 194.32557678222656 6.480000019073486 C 194.32557678222656 5.746666431427002 194.6355743408203 5.12666654586792 195.2555694580078 4.619999885559082 C 195.8755645751953 4.106666564941406 196.6722412109375 3.8500003814697266 197.64556884765625 3.8500003814697266 C 198.65890502929688 3.8500003814697266 199.48223876953125 4.113333702087402 200.11557006835938 4.640000343322754 C 200.7489013671875 5.166666507720947 201.06556701660156 5.840000152587891 201.06556701660156 6.659999847412109 L 199.52557373046875 6.659999847412109 C 199.52557373046875 6.239999771118164 199.34556579589844 5.87666654586792 198.98556518554688 5.570000171661377 C 198.63223266601562 5.263333320617676 198.18557739257812 5.110000133514404 197.64556884765625 5.110000133514404 C 197.0855712890625 5.110000133514404 196.64556884765625 5.233333110809326 196.32557678222656 5.480000019073486 C 196.01223754882812 5.71999979019165 195.85557556152344 6.0366668701171875 195.85557556152344 6.429999828338623 C 195.85557556152344 6.803333282470703 196.0022430419922 7.083333492279053 196.2955780029297 7.269999980926514 C 196.58889770507812 7.456666469573975 197.118896484375 7.636666774749756 197.8855743408203 7.809999942779541 C 198.65223693847656 7.983333110809326 199.27223205566406 8.190000534057617 199.74557495117188 8.430000305175781 C 200.22557067871094 8.663333892822266 200.5789031982422 8.949999809265137 200.80557250976562 9.289999961853027 C 201.03890991210938 9.623332977294922 201.1555633544922 10.029999732971191 201.1555633544922 10.510000228881836 C 201.1555633544922 11.309999465942383 200.83224487304688 11.953332901000977 200.18557739257812 12.4399995803833 C 199.5455780029297 12.926666259765625 198.715576171875 13.170000076293945 197.69557189941406 13.170000076293945 C 196.97557067871094 13.170000076293945 196.33889770507812 13.039999961853027 195.7855682373047 12.779999732971191 C 195.23223876953125 12.526666641235352 194.7989044189453 12.173333168029785 194.48556518554688 11.720000267028809 C 194.1722412109375 11.260000228881836 194.01556396484375 10.766666412353516 194.01556396484375 10.239999771118164 L 195.5455780029297 10.239999771118164 C 195.5789031982422 10.75333309173584 195.7855682373047 11.15999984741211 196.1655731201172 11.460000038146973 C 196.55223083496094 11.760000228881836 197.06224060058594 11.90999984741211 197.69557189941406 11.90999984741211 C 198.27557373046875 11.90999984741211 198.73890686035156 11.793333053588867 199.0855712890625 11.559999465942383 C 199.43890380859375 11.326666831970215 199.61557006835938 11.013333320617676 199.61557006835938 10.619999885559082 Z" transform="matrix(5.112778186798096, 0, 0, 5.112778186798096, 183.21469116210938, 877.8919677734375)" style="fill: rgb(253, 255, 245); white-space: pre; color: rgb(51, 51, 51);"/></svg>